<svg width="24" height="24" viewBox="0 0 24 24" fill="none" xmlns="http://www.w3.org/2000/svg">
<path d="M21.3333 18.6667H2.66667C1.196 18.6667 0 19.8627 0 21.3333C0 22.804 1.196 24 2.66667 24H21.3333C22.804 24 24 22.804 24 21.3333C24 19.8627 22.804 18.6667 21.3333 18.6667ZM21.3333 9.33333H2.66667C1.196 9.33333 0 10.5293 0 12C0 13.4707 1.196 14.6667 2.66667 14.6667H21.3333C22.804 14.6667 24 13.4707 24 12C24 10.5293 22.804 9.33333 21.3333 9.33333ZM21.3333 0H2.66667C1.196 0 0 1.196 0 2.66667C0 4.13733 1.196 5.33333 2.66667 5.33333H21.3333C22.804 5.33333 24 4.13733 24 2.66667C24 1.196 22.804 0 21.3333 0Z" fill="white"/>
</svg>
