<svg width="66" height="66" viewBox="0 0 66 66" fill="none" xmlns="http://www.w3.org/2000/svg">
<path fill-rule="evenodd" clip-rule="evenodd" d="M33 4.60465C25.4691 4.60465 18.2466 7.5963 12.9215 12.9215C7.5963 18.2466 4.60465 25.4691 4.60465 33C4.60465 40.5309 7.5963 47.7534 12.9215 53.0785C18.2466 58.4037 25.4691 61.3953 33 61.3953C40.5309 61.3953 47.7534 58.4037 53.0785 53.0785C58.4037 47.7534 61.3953 40.5309 61.3953 33C61.3953 25.4691 58.4037 18.2466 53.0785 12.9215C47.7534 7.5963 40.5309 4.60465 33 4.60465ZM0 33C0 14.7748 14.7748 0 33 0C51.2252 0 66 14.7748 66 33C66 51.2252 51.2252 66 33 66C14.7748 66 0 51.2252 0 33ZM22.1637 28.3033L31.373 19.094C31.8047 18.6628 32.3899 18.4206 33 18.4206C33.6101 18.4206 34.1953 18.6628 34.627 19.094L43.8363 28.3033C44.0625 28.514 44.2439 28.7682 44.3697 29.0506C44.4956 29.333 44.5632 29.6379 44.5687 29.947C44.5742 30.2562 44.5173 30.5632 44.4015 30.8499C44.2857 31.1366 44.1133 31.397 43.8947 31.6157C43.6761 31.8343 43.4157 32.0066 43.129 32.1224C42.8423 32.2382 42.5353 32.2951 42.2261 32.2896C41.917 32.2842 41.6121 32.2165 41.3297 32.0907C41.0473 31.9648 40.7931 31.7834 40.5823 31.5572L35.3023 26.2772V45.2791C35.3023 45.8897 35.0598 46.4753 34.628 46.9071C34.1962 47.3388 33.6106 47.5814 33 47.5814C32.3894 47.5814 31.8038 47.3388 31.372 46.9071C30.9402 46.4753 30.6977 45.8897 30.6977 45.2791V26.2772L25.4177 31.5572C24.9812 31.9639 24.404 32.1853 23.8075 32.1748C23.2111 32.1642 22.642 31.9226 22.2201 31.5008C21.7983 31.079 21.5567 30.5099 21.5462 29.9134C21.5356 29.317 21.757 28.7397 22.1637 28.3033Z" fill="white"/>
</svg>
