<svg width="155" height="40" viewBox="0 0 155 40" fill="none" xmlns="http://www.w3.org/2000/svg">
<rect width="155" height="40" rx="10" fill="#456849"/>
<path d="M20.74 26.105C19.97 26.105 19.28 25.98 18.67 25.73C18.06 25.48 17.57 25.11 17.2 24.62C16.84 24.13 16.65 23.54 16.63 22.85H19.36C19.4 23.24 19.535 23.54 19.765 23.75C19.995 23.95 20.295 24.05 20.665 24.05C21.045 24.05 21.345 23.965 21.565 23.795C21.785 23.615 21.895 23.37 21.895 23.06C21.895 22.8 21.805 22.585 21.625 22.415C21.455 22.245 21.24 22.105 20.98 21.995C20.73 21.885 20.37 21.76 19.9 21.62C19.22 21.41 18.665 21.2 18.235 20.99C17.805 20.78 17.435 20.47 17.125 20.06C16.815 19.65 16.66 19.115 16.66 18.455C16.66 17.475 17.015 16.71 17.725 16.16C18.435 15.6 19.36 15.32 20.5 15.32C21.66 15.32 22.595 15.6 23.305 16.16C24.015 16.71 24.395 17.48 24.445 18.47H21.67C21.65 18.13 21.525 17.865 21.295 17.675C21.065 17.475 20.77 17.375 20.41 17.375C20.1 17.375 19.85 17.46 19.66 17.63C19.47 17.79 19.375 18.025 19.375 18.335C19.375 18.675 19.535 18.94 19.855 19.13C20.175 19.32 20.675 19.525 21.355 19.745C22.035 19.975 22.585 20.195 23.005 20.405C23.435 20.615 23.805 20.92 24.115 21.32C24.425 21.72 24.58 22.235 24.58 22.865C24.58 23.465 24.425 24.01 24.115 24.5C23.815 24.99 23.375 25.38 22.795 25.67C22.215 25.96 21.53 26.105 20.74 26.105ZM34.0485 21.68C34.0485 21.92 34.0335 22.17 34.0035 22.43H28.1985C28.2385 22.95 28.4035 23.35 28.6935 23.63C28.9935 23.9 29.3585 24.035 29.7885 24.035C30.4285 24.035 30.8735 23.765 31.1235 23.225H33.8535C33.7135 23.775 33.4585 24.27 33.0885 24.71C32.7285 25.15 32.2735 25.495 31.7235 25.745C31.1735 25.995 30.5585 26.12 29.8785 26.12C29.0585 26.12 28.3285 25.945 27.6885 25.595C27.0485 25.245 26.5485 24.745 26.1885 24.095C25.8285 23.445 25.6485 22.685 25.6485 21.815C25.6485 20.945 25.8235 20.185 26.1735 19.535C26.5335 18.885 27.0335 18.385 27.6735 18.035C28.3135 17.685 29.0485 17.51 29.8785 17.51C30.6885 17.51 31.4085 17.68 32.0385 18.02C32.6685 18.36 33.1585 18.845 33.5085 19.475C33.8685 20.105 34.0485 20.84 34.0485 21.68ZM31.4235 21.005C31.4235 20.565 31.2735 20.215 30.9735 19.955C30.6735 19.695 30.2985 19.565 29.8485 19.565C29.4185 19.565 29.0535 19.69 28.7535 19.94C28.4635 20.19 28.2835 20.545 28.2135 21.005H31.4235ZM34.8917 21.8C34.8917 20.94 35.0517 20.185 35.3717 19.535C35.7017 18.885 36.1467 18.385 36.7067 18.035C37.2667 17.685 37.8917 17.51 38.5817 17.51C39.1717 17.51 39.6867 17.63 40.1267 17.87C40.5767 18.11 40.9217 18.425 41.1617 18.815V17.63H43.7267V26H41.1617V24.815C40.9117 25.205 40.5617 25.52 40.1117 25.76C39.6717 26 39.1567 26.12 38.5667 26.12C37.8867 26.12 37.2667 25.945 36.7067 25.595C36.1467 25.235 35.7017 24.73 35.3717 24.08C35.0517 23.42 34.8917 22.66 34.8917 21.8ZM41.1617 21.815C41.1617 21.175 40.9817 20.67 40.6217 20.3C40.2717 19.93 39.8417 19.745 39.3317 19.745C38.8217 19.745 38.3867 19.93 38.0267 20.3C37.6767 20.66 37.5017 21.16 37.5017 21.8C37.5017 22.44 37.6767 22.95 38.0267 23.33C38.3867 23.7 38.8217 23.885 39.3317 23.885C39.8417 23.885 40.2717 23.7 40.6217 23.33C40.9817 22.96 41.1617 22.455 41.1617 21.815ZM48.1473 19.025C48.4473 18.565 48.8223 18.205 49.2723 17.945C49.7223 17.675 50.2223 17.54 50.7723 17.54V20.255H50.0673C49.4273 20.255 48.9473 20.395 48.6273 20.675C48.3073 20.945 48.1473 21.425 48.1473 22.115V26H45.5823V17.63H48.1473V19.025ZM51.4884 21.815C51.4884 20.945 51.6634 20.185 52.0134 19.535C52.3734 18.885 52.8684 18.385 53.4984 18.035C54.1384 17.685 54.8684 17.51 55.6884 17.51C56.7384 17.51 57.6134 17.785 58.3134 18.335C59.0234 18.885 59.4884 19.66 59.7084 20.66H56.9784C56.7484 20.02 56.3034 19.7 55.6434 19.7C55.1734 19.7 54.7984 19.885 54.5184 20.255C54.2384 20.615 54.0984 21.135 54.0984 21.815C54.0984 22.495 54.2384 23.02 54.5184 23.39C54.7984 23.75 55.1734 23.93 55.6434 23.93C56.3034 23.93 56.7484 23.61 56.9784 22.97H59.7084C59.4884 23.95 59.0234 24.72 58.3134 25.28C57.6034 25.84 56.7284 26.12 55.6884 26.12C54.8684 26.12 54.1384 25.945 53.4984 25.595C52.8684 25.245 52.3734 24.745 52.0134 24.095C51.6634 23.445 51.4884 22.685 51.4884 21.815ZM66.2254 17.54C67.1854 17.54 67.9554 17.86 68.5354 18.5C69.1154 19.13 69.4054 20 69.4054 21.11V26H66.8554V21.455C66.8554 20.895 66.7104 20.46 66.4204 20.15C66.1304 19.84 65.7404 19.685 65.2504 19.685C64.7604 19.685 64.3704 19.84 64.0804 20.15C63.7904 20.46 63.6454 20.895 63.6454 21.455V26H61.0804V14.9H63.6454V18.755C63.9054 18.385 64.2604 18.09 64.7104 17.87C65.1604 17.65 65.6654 17.54 66.2254 17.54ZM75.6565 16.76C75.2065 16.76 74.8365 16.63 74.5465 16.37C74.2665 16.1 74.1265 15.77 74.1265 15.38C74.1265 14.98 74.2665 14.65 74.5465 14.39C74.8365 14.12 75.2065 13.985 75.6565 13.985C76.0965 13.985 76.4565 14.12 76.7365 14.39C77.0265 14.65 77.1715 14.98 77.1715 15.38C77.1715 15.77 77.0265 16.1 76.7365 16.37C76.4565 16.63 76.0965 16.76 75.6565 16.76ZM76.9315 17.63V26H74.3665V17.63H76.9315ZM83.4554 23.825V26H82.1504C81.2204 26 80.4954 25.775 79.9754 25.325C79.4554 24.865 79.1954 24.12 79.1954 23.09V19.76H78.1754V17.63H79.1954V15.59H81.7604V17.63H83.4404V19.76H81.7604V23.12C81.7604 23.37 81.8204 23.55 81.9404 23.66C82.0604 23.77 82.2604 23.825 82.5404 23.825H83.4554ZM92.7741 21.68C92.7741 21.92 92.7591 22.17 92.7291 22.43H86.9241C86.9641 22.95 87.1291 23.35 87.4191 23.63C87.7191 23.9 88.0841 24.035 88.5141 24.035C89.1541 24.035 89.5991 23.765 89.8491 23.225H92.5791C92.4391 23.775 92.1841 24.27 91.8141 24.71C91.4541 25.15 90.9991 25.495 90.4491 25.745C89.8991 25.995 89.2841 26.12 88.6041 26.12C87.7841 26.12 87.0541 25.945 86.4141 25.595C85.7741 25.245 85.2741 24.745 84.9141 24.095C84.5541 23.445 84.3741 22.685 84.3741 21.815C84.3741 20.945 84.5491 20.185 84.8991 19.535C85.2591 18.885 85.7591 18.385 86.3991 18.035C87.0391 17.685 87.7741 17.51 88.6041 17.51C89.4141 17.51 90.1341 17.68 90.7641 18.02C91.3941 18.36 91.8841 18.845 92.2341 19.475C92.5941 20.105 92.7741 20.84 92.7741 21.68ZM90.1491 21.005C90.1491 20.565 89.9991 20.215 89.6991 19.955C89.3991 19.695 89.0241 19.565 88.5741 19.565C88.1441 19.565 87.7791 19.69 87.4791 19.94C87.1891 20.19 87.0091 20.545 86.9391 21.005H90.1491ZM104.807 17.54C105.847 17.54 106.672 17.855 107.282 18.485C107.902 19.115 108.212 19.99 108.212 21.11V26H105.662V21.455C105.662 20.915 105.517 20.5 105.227 20.21C104.947 19.91 104.557 19.76 104.057 19.76C103.557 19.76 103.162 19.91 102.872 20.21C102.592 20.5 102.452 20.915 102.452 21.455V26H99.9023V21.455C99.9023 20.915 99.7573 20.5 99.4673 20.21C99.1873 19.91 98.7973 19.76 98.2973 19.76C97.7973 19.76 97.4023 19.91 97.1123 20.21C96.8323 20.5 96.6923 20.915 96.6923 21.455V26H94.1273V17.63H96.6923V18.68C96.9523 18.33 97.2923 18.055 97.7123 17.855C98.1323 17.645 98.6073 17.54 99.1373 17.54C99.7673 17.54 100.327 17.675 100.817 17.945C101.317 18.215 101.707 18.6 101.987 19.1C102.277 18.64 102.672 18.265 103.172 17.975C103.672 17.685 104.217 17.54 104.807 17.54Z" fill="white"/>
<path d="M128.876 25.7525C126.395 25.7525 124.296 24.8931 122.578 23.1743C120.86 21.4555 120.001 19.3561 120 16.8762C119.999 14.3964 120.858 12.297 122.578 10.5782C124.298 8.8594 126.397 8 128.876 8C131.355 8 133.455 8.8594 135.176 10.5782C136.896 12.297 137.755 14.3964 137.752 16.8762C137.752 17.8777 137.593 18.8222 137.275 19.7098C136.956 20.5974 136.523 21.3826 135.977 22.0654L143.624 29.7127C143.875 29.963 144 30.2816 144 30.6686C144 31.0555 143.875 31.3741 143.624 31.6245C143.374 31.8748 143.055 32 142.669 32C142.282 32 141.963 31.8748 141.713 31.6245L134.065 23.9772C133.383 24.5235 132.597 24.9559 131.71 25.2745C130.822 25.5932 129.878 25.7525 128.876 25.7525ZM128.876 23.0213C130.583 23.0213 132.034 22.4241 133.23 21.2297C134.425 20.0353 135.022 18.5841 135.021 16.8762C135.02 15.1684 134.423 13.7177 133.23 12.5242C132.036 11.3306 130.585 10.733 128.876 10.7312C127.167 10.7293 125.717 11.327 124.524 12.5242C123.332 13.7213 122.734 15.172 122.731 16.8762C122.728 18.5805 123.326 20.0316 124.524 21.2297C125.722 22.4278 127.173 23.025 128.876 23.0213Z" fill="white"/>
</svg>
