<svg width="16" height="14" viewBox="0 0 16 14" fill="none" xmlns="http://www.w3.org/2000/svg">
<path d="M7.38275 0.792249C6.974 0.812249 6.329 1.48725 6.329 1.48725C6.329 1.48725 5.93775 1.791 5.45525 2.05225C5.054 2.26975 2.25025 3.40225 0.855254 5.60725C-0.189746 7.261 -0.518496 9.6235 1.2715 11.6422C3.0615 13.661 5.6415 13.5572 5.6415 13.5572C5.6415 13.5572 8.7215 13.7035 9.95025 13.4735C10.9865 13.2797 12.1603 13.0497 12.1603 13.0497C12.1603 13.0497 14.9053 11.7947 15.0953 8.43475C15.2653 5.4285 13.0253 3.88475 11.8528 3.2035C11.1953 2.82225 9.57525 1.961 8.939 1.47725C7.949 0.725999 7.8465 0.769749 7.38275 0.792249Z" fill="url(#paint0_radial_55_8)"/>
<path d="M7.58784 2.37625C7.58784 2.37625 7.98159 1.92875 8.19909 1.725C8.41659 1.52125 8.71534 1.30375 8.71534 1.30375C8.71534 1.30375 8.11784 0.80125 7.96909 0.61125C7.82034 0.42125 7.58909 0 7.44034 0C7.29159 0 7.11409 0.51625 6.93784 0.76C6.76159 1.00375 6.31409 1.4925 6.31409 1.4925C6.31409 1.4925 6.77534 1.71 6.99284 1.8725C7.20784 2.0375 7.58784 2.37625 7.58784 2.37625Z" fill="#F5B03E"/>
<path d="M5.89155 12.2363C4.7978 12.2613 3.39905 13.125 3.39905 13.125C3.39905 13.125 4.6253 13.97 7.96905 13.8963C11.3128 13.8225 12.4115 12.91 12.4115 12.91C12.4115 12.91 11.3615 12.0888 10.1203 12.0513C9.1003 12.0213 8.9028 12.3463 7.9078 12.3713C6.91155 12.3963 6.98655 12.2113 5.89155 12.2363Z" fill="#CF701E"/>
<path d="M5.18277 3.73222C4.89027 3.64097 3.84902 5.05472 3.44152 6.39972C3.07652 7.60722 3.14277 8.74847 3.42277 9.75847C3.62402 10.4835 4.44027 12.0485 4.76277 12.0347C5.08527 12.021 3.97402 10.456 3.95527 8.43722C3.93402 6.11847 4.34027 5.62847 4.68902 4.91347C4.82027 4.64597 5.40652 3.80222 5.18277 3.73222ZM7.28777 4.65597C7.08902 4.65597 6.61402 5.69472 6.62777 8.12347C6.63902 10.161 6.73277 11.3635 7.14652 11.6322C7.42777 11.8147 7.30652 8.81097 7.30152 8.13722C7.28777 6.60722 7.55527 4.65597 7.28777 4.65597ZM9.36527 3.85847C9.12652 3.97097 9.49152 4.77097 9.70277 6.09097C9.83527 6.92347 9.94152 8.85597 9.84277 9.69847C9.74402 10.541 9.36527 11.5797 9.80027 11.5935C10.2353 11.6072 10.6565 10.2735 10.544 7.85972C10.4328 5.44472 9.58777 3.75472 9.36527 3.85847ZM12.0765 4.86972C11.824 5.03847 12.5115 6.10472 12.5953 7.90222C12.679 9.69847 11.949 11.791 12.2028 11.791C12.4553 11.791 13.129 10.2747 13.2278 8.70222C13.349 6.75347 12.339 4.69472 12.0765 4.86972Z" fill="#543121"/>
<path d="M3.89272 3.97247C3.67022 3.77122 2.63522 3.95122 1.67272 5.61372C0.865225 7.00747 1.17272 7.97497 1.71522 8.06997C2.51522 8.20997 2.42647 7.13872 3.00647 5.97872C3.53397 4.92372 4.12772 4.18497 3.89272 3.97247ZM5.94147 4.11247C5.63397 4.00497 5.38272 4.72622 5.26772 5.12372C5.17147 5.45497 5.09772 5.98622 5.53397 6.06372C6.01897 6.15122 6.08272 5.51747 6.10897 5.05247C6.13022 4.68872 6.22147 4.21122 5.94147 4.11247Z" fill="#D06150"/>
<defs>
<radialGradient id="paint0_radial_55_8" cx="0" cy="0" r="1" gradientUnits="userSpaceOnUse" gradientTransform="translate(7.48466 1.30749) rotate(89.8184) scale(9.92767 25.1845)">
<stop offset="0.348" stop-color="#A82209"/>
<stop offset="1" stop-color="#543121"/>
</radialGradient>
</defs>
</svg>
