<svg width="32" height="32" viewBox="0 0 32 32" fill="none" xmlns="http://www.w3.org/2000/svg">
<path d="M10.24 24L16 18.24L21.76 24L24 21.76L18.24 16L24 10.24L21.76 8L16 13.76L10.24 8L8 10.24L13.76 16L8 21.76L10.24 24ZM16 32C13.7867 32 11.7067 31.5797 9.76 30.7392C7.81333 29.8987 6.12 28.7589 4.68 27.32C3.24 25.8811 2.10027 24.1877 1.2608 22.24C0.421335 20.2923 0.00106869 18.2123 2.02531e-06 16C-0.00106464 13.7877 0.419202 11.7077 1.2608 9.76C2.1024 7.81226 3.24213 6.11893 4.68 4.68C6.11787 3.24107 7.8112 2.10133 9.76 1.2608C11.7088 0.420267 13.7888 0 16 0C18.2112 0 20.2912 0.420267 22.24 1.2608C24.1888 2.10133 25.8821 3.24107 27.32 4.68C28.7579 6.11893 29.8981 7.81226 30.7408 9.76C31.5834 11.7077 32.0032 13.7877 32 16C31.9968 18.2123 31.5765 20.2923 30.7392 22.24C29.9018 24.1877 28.7621 25.8811 27.32 27.32C25.8779 28.7589 24.1845 29.8992 22.24 30.7408C20.2955 31.5824 18.2155 32.0021 16 32ZM16 28.8C19.5733 28.8 22.6 27.56 25.08 25.08C27.56 22.6 28.8 19.5733 28.8 16C28.8 12.4267 27.56 9.4 25.08 6.92C22.6 4.44 19.5733 3.2 16 3.2C12.4267 3.2 9.4 4.44 6.92 6.92C4.44 9.4 3.2 12.4267 3.2 16C3.2 19.5733 4.44 22.6 6.92 25.08C9.4 27.56 12.4267 28.8 16 28.8Z" fill="white"/>
</svg>
